<svg width="64" height="64" viewBox="0 0 64 64" fill="none" xmlns="http://www.w3.org/2000/svg">
  <path d="M32 64C49.6731 64 64 49.6731 64 32C64 14.3269 49.6731 0 32 0C14.3269 0 0 14.3269 0 32C0 49.6731 14.3269 64 32 64Z" fill="#FD366E"/>
  <path d="M32 16C23.2 16 16 23.2 16 32C16 40.8 23.2 48 32 48C40.8 48 48 40.8 48 32C48 23.2 40.8 16 32 16ZM32 44C25.4 44 20 38.6 20 32C20 25.4 25.4 20 32 20C38.6 20 44 25.4 44 32C44 38.6 38.6 44 32 44Z" fill="white"/>
  <path d="M32 22.4C26.8 22.4 22.4 26.8 22.4 32C22.4 37.2 26.8 41.6 32 41.6C37.2 41.6 41.6 37.2 41.6 32C41.6 26.8 37.2 22.4 32 22.4Z" fill="white"/>
  <path d="M32 26.4C29.2 26.4 26.4 29.2 26.4 32C26.4 34.8 29.2 37.6 32 37.6C34.8 37.6 37.6 34.8 37.6 32C37.6 29.2 34.8 26.4 32 26.4Z" fill="#FD366E"/>
</svg>